<?xml version="1.0" encoding="UTF-8" standalone="no"?>
<!DOCTYPE svg PUBLIC "-//W3C//DTD SVG 1.1//EN" "http://www.w3.org/Graphics/SVG/1.1/DTD/svg11.dtd">
<svg width="100%" height="100%" viewBox="0 0 1442 413" version="1.1" xmlns="http://www.w3.org/2000/svg" xmlns:xlink="http://www.w3.org/1999/xlink" xml:space="preserve" xmlns:serif="http://www.serif.com/" style="fill-rule:evenodd;clip-rule:evenodd;stroke-linecap:round;stroke-miterlimit:2;">
    <g transform="matrix(4.16667,0,0,4.16667,0,0)">
        <path d="M85.27,9.981L11.012,9.981C10.82,10.315 10.628,10.648 10.443,10.981L85.838,10.981C85.654,10.648 85.462,10.314 85.27,9.981ZM92.89,33.218L3.393,33.218C3.364,33.55 3.321,33.889 3.296,34.218L92.986,34.218C92.962,33.889 92.919,33.55 92.89,33.218ZM57.189,27.735L57.909,27.735C58.207,27.735 58.604,27.288 58.604,27.015L58.604,17.283C58.604,17.01 58.207,16.588 57.909,16.588L57.189,16.588L57.189,13.411L71.985,13.411L71.985,19.046L68.633,19.046L68.137,16.836L64.413,16.836L64.413,20.163L68.41,20.163L68.41,23.688L64.413,23.688L64.413,27.462L68.236,27.462L68.708,24.831L72.209,24.831L72.209,30.789L57.189,30.789L57.189,27.735ZM37.947,27.735L38.668,27.735C38.965,27.735 39.363,27.288 39.363,27.015L39.363,17.283C39.363,17.01 38.965,16.588 38.668,16.588L37.947,16.588L37.947,13.411L46.662,13.411L46.662,16.588L45.172,16.588L45.172,20.511L49.268,20.511L49.268,16.588L47.779,16.588L47.779,13.411L56.493,13.411L56.493,16.588L55.773,16.588C55.475,16.588 55.078,17.01 55.078,17.283L55.078,27.015C55.078,27.288 55.475,27.735 55.773,27.735L56.493,27.735L56.493,30.789L47.779,30.789L47.779,27.735L49.268,27.735L49.268,23.465L45.172,23.465L45.172,27.735L46.662,27.735L46.662,30.789L37.947,30.789L37.947,27.735ZM27.719,30.789L24.02,30.789L24.02,25.302L27.793,25.302L28.29,27.462C28.662,27.586 29.109,27.636 29.779,27.636C31.095,27.636 31.89,27.189 31.89,26.097C31.89,24.905 30.748,24.682 28.91,24.185C26.378,23.515 24.094,22.472 24.094,18.723C24.094,14.776 26.825,13.137 30.549,13.137C32.113,13.137 33.007,13.261 33.727,13.411L36.904,13.411L36.904,18.45L33.18,18.45L32.684,16.588C32.361,16.489 31.939,16.415 31.393,16.415C30.027,16.415 29.283,16.861 29.283,17.929C29.283,19.096 30.4,19.294 31.666,19.642C35.837,20.759 37.426,21.901 37.426,25.228C37.426,29.001 35.316,31.062 30.648,31.062C29.457,31.062 28.587,30.962 27.719,30.789ZM3.204,38.471L93.078,38.471C93.105,41.951 92.918,45.436 92.417,48.881C91.931,52.198 91.153,55.462 90.012,58.618C86.665,67.871 81.159,75.568 73.623,81.873C71.95,83.27 70.188,84.588 68.402,85.837C66.3,87.308 64.134,88.697 61.91,89.977C59.992,91.083 58.017,92.116 55.989,93.01C54.178,93.81 52.274,94.526 50.344,94.983C49.026,95.295 47.358,95.328 46.046,94.979C44.158,94.477 42.296,93.753 40.514,92.958C38.507,92.065 36.547,91.052 34.635,89.974C32.348,88.685 30.11,87.292 27.941,85.814C26.134,84.582 24.337,83.275 22.66,81.873C15.124,75.568 9.617,67.871 6.27,58.618C5.129,55.462 4.351,52.198 3.867,48.881C3.363,45.436 3.177,41.951 3.204,38.471ZM91.856,59.945C88.399,69.501 82.524,77.398 74.768,83.886C69.377,88.394 58.225,95.5 50.341,97.398C49.011,97.717 47.348,97.745 46.034,97.389C38.26,95.282 26.735,88.252 21.515,83.886C13.759,77.398 7.883,69.501 4.426,59.945C1.346,51.427 0.31,41.551 1.668,30.254C2.739,21.349 6.73,11.964 13.755,1.975C25.167,5.708 36.579,5.691 47.99,1.922L48.292,1.922C59.705,5.691 71.115,5.708 82.526,1.975C89.553,11.964 93.544,21.349 94.614,30.254C95.974,41.551 94.937,51.427 91.856,59.945ZM95.691,30.125C94.433,19.667 89.402,9.866 83.413,1.352L82.952,0.695L82.191,0.945C71.001,4.606 59.812,4.585 48.632,0.893L48.465,0.838L47.817,0.838L47.65,0.893C36.471,4.585 25.282,4.606 14.092,0.945L13.33,0.695L12.869,1.352C6.881,9.866 1.85,19.667 0.593,30.125C-0.627,40.28 -0.092,50.635 3.408,60.315C6.934,70.065 12.935,78.122 20.82,84.717C26.238,89.249 37.902,96.337 45.893,98.462C47.292,98.834 49.079,98.805 50.497,98.469C58.593,96.549 69.878,89.387 75.462,84.717C83.347,78.122 89.347,70.065 92.875,60.315C96.376,50.635 96.911,40.28 95.691,30.125Z" style="fill:url(#_Linear1);fill-rule:nonzero;"/>
        <path d="M109.243,16.836L110.167,16.836C110.503,16.836 110.95,16.333 110.95,16.025L110.95,4.433L109.383,4.433L108.963,8.044L105.07,8.044L105.07,0.681L123.383,0.681L123.383,8.044L119.519,8.044L119.07,4.433L117.503,4.433L117.503,16.025C117.503,16.333 117.95,16.836 118.287,16.836L119.211,16.836L119.211,20.281L109.243,20.281L109.243,16.836Z" style="fill:white;fill-rule:nonzero;"/>
        <path d="M134.303,11.097C134.303,10.004 133.799,9.781 132.511,9.781C132.259,9.781 131.811,9.809 131.391,9.865L131.391,16.836L133.015,16.836L133.015,20.281L123.887,20.281L123.887,16.836L124.587,16.836C124.866,16.836 125.259,16.389 125.259,16.137L125.259,4.937C125.259,4.657 124.866,4.265 124.587,4.265L123.803,4.265L123.803,0.681L130.494,0.681C131.054,0.681 131.391,1.157 131.391,1.913L131.391,7.457C132.65,6.168 134.358,5.217 136.626,5.217C138.586,5.217 140.435,6.029 140.435,8.745L140.435,16.137C140.435,16.416 140.826,16.836 141.106,16.836L141.555,16.836L141.555,20.281L134.303,20.281L134.303,11.097Z" style="fill:white;fill-rule:nonzero;"/>
        <path d="M147.911,11.321L151.439,11.321C151.299,9.417 150.822,8.717 149.759,8.717C148.667,8.717 148.106,9.417 147.911,11.321ZM147.883,14.205C148.079,16.081 148.807,16.893 150.486,16.893C151.999,16.893 152.755,16.361 153.314,15.632L156.534,15.632L156.534,19.189C155.19,19.945 153.23,20.533 149.843,20.533C144.074,20.533 141.751,17.649 141.751,12.973C141.751,8.241 144.803,5.217 149.759,5.217C154.771,5.217 157.123,7.569 157.123,12.749C157.123,13.449 157.066,14.009 157.066,14.205L147.883,14.205Z" style="fill:white;fill-rule:nonzero;"/>
        <path d="M165.635,20.281L161.463,20.281L161.463,14.093L165.719,14.093L166.278,16.529C166.698,16.668 167.202,16.725 167.959,16.725C169.442,16.725 170.339,16.221 170.339,14.989C170.339,13.645 169.051,13.393 166.979,12.833C164.123,12.077 161.547,10.901 161.547,6.672C161.547,2.221 164.627,0.373 168.826,0.373C170.591,0.373 171.599,0.513 172.41,0.681L175.994,0.681L175.994,6.365L171.795,6.365L171.234,4.265C170.87,4.153 170.395,4.069 169.778,4.069C168.238,4.069 167.398,4.573 167.398,5.777C167.398,7.093 168.658,7.317 170.087,7.709C174.791,8.969 176.583,10.256 176.583,14.009C176.583,18.265 174.202,20.588 168.939,20.588C167.595,20.588 166.614,20.477 165.635,20.281Z" style="fill:white;fill-rule:nonzero;"/>
        <path d="M185.514,16.557L185.514,14.345C185.15,14.289 184.702,14.233 184.338,14.233C183.358,14.233 182.826,14.597 182.826,15.689C182.826,16.752 183.414,17.033 184.17,17.033C184.702,17.033 185.094,16.865 185.514,16.557ZM177.086,16.249C177.086,13.029 179.354,11.628 182.826,11.628C183.918,11.628 184.702,11.685 185.514,11.825L185.514,10.929C185.514,9.893 184.954,9.417 183.526,9.417C182.014,9.417 181.23,9.949 180.642,10.425L178.094,10.425L178.094,6.252C179.662,5.693 181.986,5.217 185.01,5.217C189.658,5.217 191.646,6.756 191.646,10.229L191.646,16.137C191.646,16.416 192.038,16.836 192.318,16.836L192.794,16.836L192.794,19.749C191.926,20.225 190.75,20.533 189.294,20.533C187.39,20.533 186.41,19.889 185.934,18.769C184.87,19.973 183.47,20.477 181.678,20.477C179.214,20.477 177.086,19.105 177.086,16.249Z" style="fill:white;fill-rule:nonzero;"/>
        <path d="M193.074,5.497L194.53,5.497L194.53,4.853C194.53,1.521 196.462,0.289 199.99,0.289C201.39,0.289 202.258,0.485 202.986,0.709L202.986,3.901L202.23,3.901C201.082,3.901 200.662,4.097 200.662,5.077L200.662,5.497L202.874,5.497L202.874,9.165L200.662,9.165L200.662,16.137C200.662,16.416 201.054,16.836 201.334,16.836L202.286,16.836L202.286,20.281L193.158,20.281L193.158,16.836L193.858,16.836C194.138,16.836 194.53,16.416 194.53,16.137L194.53,9.165L193.074,9.165L193.074,5.497Z" style="fill:white;fill-rule:nonzero;"/>
        <path d="M209.006,11.321L212.533,11.321C212.394,9.417 211.917,8.717 210.854,8.717C209.762,8.717 209.201,9.417 209.006,11.321ZM208.978,14.205C209.174,16.081 209.901,16.893 211.581,16.893C213.094,16.893 213.85,16.361 214.409,15.632L217.629,15.632L217.629,19.189C216.285,19.945 214.325,20.533 210.938,20.533C205.169,20.533 202.846,17.649 202.846,12.973C202.846,8.241 205.897,5.217 210.854,5.217C215.865,5.217 218.218,7.569 218.218,12.749C218.218,13.449 218.161,14.009 218.161,14.205L208.978,14.205Z" style="fill:white;fill-rule:nonzero;"/>
        <path d="M218.471,5.497L219.927,5.497L219.927,1.661L226.059,1.661L226.059,5.497L228.522,5.497L228.522,9.165L226.059,9.165L226.059,15.185C226.059,16.445 226.479,16.836 227.822,16.836L228.578,16.836L228.578,20.168C227.851,20.365 226.73,20.588 225.33,20.588C222.082,20.588 219.927,19.665 219.927,16.221L219.927,9.165L218.471,9.165L218.471,5.497Z" style="fill:white;fill-rule:nonzero;"/>
        <path d="M230.762,21.765C232.134,21.429 233.478,20.869 234.598,19.973L230.09,9.809C229.949,9.501 229.585,9.165 229.277,9.165L228.886,9.165L228.886,5.497L237.426,5.497L237.426,9.165L235.941,9.165L237.901,14.065L238.014,14.065L239.47,10.425C239.749,9.781 239.554,9.165 238.825,9.165L238.573,9.165L238.573,5.497L245.629,5.497L245.629,9.165L245.209,9.165C244.901,9.165 244.426,9.613 244.23,10.033L240.421,18.041C238.63,21.737 237.117,23.473 235.382,24.817L230.762,24.817L230.762,21.765Z" style="fill:white;fill-rule:nonzero;"/>
        <path d="M260.861,16.221L256.801,12.105C256.493,12.525 256.241,13.113 256.241,13.897C256.241,15.493 257.249,16.557 259.069,16.557C259.713,16.557 260.301,16.445 260.861,16.221ZM250.081,14.624C250.081,11.796 251.929,10.088 254.197,9.165C253.581,8.212 253.301,7.205 253.301,5.889C253.301,2.613 255.513,0.373 259.769,0.373C260.665,0.373 261.953,0.541 262.373,0.681L266.741,0.681L266.741,6.365L262.597,6.365L262.149,4.544C261.98,4.489 261.785,4.433 261.393,4.433C260.245,4.433 259.797,4.937 259.797,5.889C259.797,6.841 260.357,7.429 261.281,8.353L264.557,11.712C264.865,10.761 265.117,9.697 265.257,8.521L269.961,8.521L269.961,11.013C269.317,12.469 268.617,13.869 267.833,15.101L269.009,16.277C269.457,16.668 269.653,16.836 270.045,16.836L270.241,16.836L270.241,20.281L264.669,20.281L263.633,19.245C262.149,20.057 260.357,20.504 258.088,20.504C252.741,20.504 250.081,18.181 250.081,14.624Z" style="fill:white;fill-rule:nonzero;"/>
        <path d="M105.015,42.837L105.827,42.837C106.163,42.837 106.61,42.333 106.61,42.025L106.61,31.048C106.61,30.741 106.163,30.265 105.827,30.265L105.015,30.265L105.015,26.681L114.843,26.681L114.843,30.265L113.163,30.265L113.163,34.689L117.782,34.689L117.782,30.265L116.103,30.265L116.103,26.681L125.931,26.681L125.931,30.265L125.118,30.265C124.782,30.265 124.335,30.741 124.335,31.048L124.335,42.025C124.335,42.333 124.782,42.837 125.118,42.837L125.931,42.837L125.931,46.281L116.103,46.281L116.103,42.837L117.782,42.837L117.782,38.021L113.163,38.021L113.163,42.837L114.843,42.837L114.843,46.281L105.015,46.281L105.015,42.837Z" style="fill:white;fill-rule:nonzero;"/>
        <path d="M132.26,37.321L135.787,37.321C135.647,35.416 135.171,34.717 134.107,34.717C133.016,34.717 132.455,35.416 132.26,37.321ZM132.231,40.205C132.428,42.081 133.155,42.893 134.835,42.893C136.348,42.893 137.104,42.361 137.663,41.632L140.883,41.632L140.883,45.189C139.539,45.945 137.579,46.533 134.191,46.533C128.423,46.533 126.1,43.649 126.1,38.973C126.1,34.241 129.151,31.217 134.107,31.217C139.119,31.217 141.472,33.569 141.472,38.749C141.472,39.449 141.415,40.009 141.415,40.205L132.231,40.205Z" style="fill:white;fill-rule:nonzero;"/>
        <path d="M150.207,42.557L150.207,40.345C149.844,40.289 149.396,40.233 149.031,40.233C148.052,40.233 147.52,40.597 147.52,41.689C147.52,42.753 148.107,43.033 148.863,43.033C149.396,43.033 149.787,42.865 150.207,42.557ZM141.779,42.249C141.779,39.029 144.047,37.629 147.52,37.629C148.611,37.629 149.396,37.685 150.207,37.825L150.207,36.929C150.207,35.893 149.647,35.416 148.22,35.416C146.707,35.416 145.923,35.949 145.335,36.425L142.787,36.425L142.787,32.252C144.355,31.693 146.68,31.217 149.703,31.217C154.352,31.217 156.339,32.756 156.339,36.229L156.339,42.137C156.339,42.416 156.731,42.837 157.012,42.837L157.487,42.837L157.487,45.749C156.619,46.225 155.443,46.533 153.987,46.533C152.083,46.533 151.104,45.889 150.627,44.769C149.564,45.973 148.163,46.477 146.371,46.477C143.907,46.477 141.779,45.105 141.779,42.249Z" style="fill:white;fill-rule:nonzero;"/>
        <path d="M157.823,42.837L158.636,42.837C158.915,42.837 159.308,42.416 159.308,42.137L159.308,30.964C159.308,30.685 158.915,30.265 158.636,30.265L157.768,30.265L157.768,26.681L164.543,26.681C165.104,26.681 165.439,27.157 165.439,27.913L165.439,42.137C165.439,42.416 165.831,42.837 166.111,42.837L166.951,42.837L166.951,46.281L157.823,46.281L157.823,42.837Z" style="fill:white;fill-rule:nonzero;"/>
        <path d="M166.812,31.497L168.268,31.497L168.268,27.661L174.399,27.661L174.399,31.497L176.863,31.497L176.863,35.165L174.399,35.165L174.399,41.185C174.399,42.445 174.819,42.837 176.163,42.837L176.919,42.837L176.919,46.168C176.191,46.365 175.071,46.588 173.671,46.588C170.423,46.588 168.268,45.665 168.268,42.221L168.268,35.165L166.812,35.165L166.812,31.497Z" style="fill:white;fill-rule:nonzero;"/>
        <path d="M187.727,37.097C187.727,36.004 187.223,35.781 185.935,35.781C185.683,35.781 185.234,35.809 184.814,35.865L184.814,42.837L186.439,42.837L186.439,46.281L177.311,46.281L177.311,42.837L178.011,42.837C178.29,42.837 178.683,42.389 178.683,42.137L178.683,30.937C178.683,30.657 178.29,30.265 178.011,30.265L177.227,30.265L177.227,26.681L183.918,26.681C184.479,26.681 184.814,27.157 184.814,27.913L184.814,33.457C186.074,32.168 187.782,31.217 190.05,31.217C192.01,31.217 193.858,32.029 193.858,34.745L193.858,42.137C193.858,42.416 194.25,42.837 194.53,42.837L194.979,42.837L194.979,46.281L187.727,46.281L187.727,37.097Z" style="fill:white;fill-rule:nonzero;"/>
        <path d="M199.29,42.837L200.103,42.837C200.439,42.837 200.886,42.333 200.886,42.025L200.886,31.048C200.886,30.741 200.439,30.265 200.103,30.265L199.29,30.265L199.29,26.681L215.978,26.681L215.978,33.037L212.198,33.037L211.638,30.544L207.439,30.544L207.439,34.296L211.946,34.296L211.946,38.273L207.439,38.273L207.439,42.529L211.75,42.529L212.282,39.561L216.23,39.561L216.23,46.281L199.29,46.281L199.29,42.837Z" style="fill:white;fill-rule:nonzero;"/>
        <path d="M216.763,42.837L216.931,42.837C217.322,42.837 217.742,42.416 218.051,42.109L220.626,38.916L217.967,35.809C217.658,35.473 217.378,35.165 217.07,35.165L216.679,35.165L216.679,31.497L225.414,31.497L225.414,34.969L224.322,34.969L226.03,36.901L226.759,35.977C227.122,35.529 226.982,34.969 226.395,34.969L226.311,34.969L226.311,31.497L233.086,31.497L233.086,35.165L232.918,35.165C232.555,35.165 232.135,35.557 231.855,35.893L229.25,39L231.967,42.193C232.274,42.529 232.582,42.837 232.891,42.837L233.17,42.837L233.17,46.281L224.49,46.281L224.49,43.004L225.61,43.004L223.847,41.017L223.147,41.885C222.698,42.5 222.95,43.004 223.511,43.004L223.595,43.004L223.595,46.281L216.763,46.281L216.763,42.837Z" style="fill:white;fill-rule:nonzero;"/>
        <path d="M233.198,38.945C233.198,34.073 236.334,31.217 241.626,31.217C243.922,31.217 245.742,31.525 246.89,31.973L246.89,36.425L243.642,36.425C243.222,35.584 242.83,35.109 241.738,35.109C240.226,35.109 239.442,36.229 239.442,39C239.442,41.8 240.17,42.893 241.822,42.893C242.998,42.893 243.754,42.333 244.258,41.661L246.918,41.661L246.918,45.132C245.714,45.916 243.894,46.533 241.542,46.533C235.942,46.533 233.198,43.789 233.198,38.945Z" style="fill:white;fill-rule:nonzero;"/>
        <path d="M253.526,37.321L257.053,37.321C256.914,35.416 256.437,34.717 255.374,34.717C254.282,34.717 253.722,35.416 253.526,37.321ZM253.498,40.205C253.694,42.081 254.422,42.893 256.101,42.893C257.614,42.893 258.37,42.361 258.93,41.632L262.149,41.632L262.149,45.189C260.806,45.945 258.846,46.533 255.458,46.533C249.689,46.533 247.366,43.649 247.366,38.973C247.366,34.241 250.418,31.217 255.374,31.217C260.385,31.217 262.738,33.569 262.738,38.749C262.738,39.449 262.682,40.009 262.682,40.205L253.498,40.205Z" style="fill:white;fill-rule:nonzero;"/>
        <path d="M263.046,42.837L263.858,42.837C264.138,42.837 264.53,42.416 264.53,42.137L264.53,30.964C264.53,30.685 264.138,30.265 263.858,30.265L262.99,30.265L262.99,26.681L269.766,26.681C270.326,26.681 270.662,27.157 270.662,27.913L270.662,42.137C270.662,42.416 271.054,42.837 271.334,42.837L272.174,42.837L272.174,46.281L263.046,46.281L263.046,42.837Z" style="fill:white;fill-rule:nonzero;"/>
        <path d="M272.566,42.837L273.379,42.837C273.658,42.837 274.051,42.416 274.051,42.137L274.051,30.964C274.051,30.685 273.658,30.265 273.379,30.265L272.511,30.265L272.511,26.681L279.286,26.681C279.847,26.681 280.183,27.157 280.183,27.913L280.183,42.137C280.183,42.416 280.574,42.837 280.855,42.837L281.694,42.837L281.694,46.281L272.566,46.281L272.566,42.837Z" style="fill:white;fill-rule:nonzero;"/>
        <path d="M287.995,37.321L291.522,37.321C291.383,35.416 290.906,34.717 289.843,34.717C288.751,34.717 288.19,35.416 287.995,37.321ZM287.967,40.205C288.163,42.081 288.891,42.893 290.57,42.893C292.083,42.893 292.839,42.361 293.398,41.632L296.618,41.632L296.618,45.189C295.274,45.945 293.314,46.533 289.927,46.533C284.158,46.533 281.835,43.649 281.835,38.973C281.835,34.241 284.887,31.217 289.843,31.217C294.855,31.217 297.207,33.569 297.207,38.749C297.207,39.449 297.15,40.009 297.15,40.205L287.967,40.205Z" style="fill:white;fill-rule:nonzero;"/>
        <path d="M297.627,42.837L298.327,42.837C298.606,42.837 299.026,42.389 299.026,42.137L299.026,35.865C299.026,35.584 298.606,35.165 298.327,35.165L297.543,35.165L297.543,31.497L303.955,31.497C304.515,31.497 304.906,31.916 305.047,33.541C306.335,32.197 308.043,31.217 310.366,31.217C312.326,31.217 314.175,32.029 314.175,34.745L314.175,42.137C314.175,42.416 314.595,42.837 314.875,42.837L315.322,42.837L315.322,46.281L308.07,46.281L308.07,37.097C308.07,36.004 307.539,35.781 306.278,35.781C306.026,35.781 305.579,35.809 305.131,35.865L305.131,42.837L306.782,42.837L306.782,46.281L297.627,46.281L297.627,42.837Z" style="fill:white;fill-rule:nonzero;"/>
        <path d="M315.49,38.945C315.49,34.073 318.626,31.217 323.918,31.217C326.214,31.217 328.034,31.525 329.182,31.973L329.182,36.425L325.934,36.425C325.514,35.584 325.122,35.109 324.03,35.109C322.518,35.109 321.734,36.229 321.734,39C321.734,41.8 322.462,42.893 324.114,42.893C325.29,42.893 326.046,42.333 326.55,41.661L329.21,41.661L329.21,45.132C328.006,45.916 326.186,46.533 323.834,46.533C318.234,46.533 315.49,43.789 315.49,38.945Z" style="fill:white;fill-rule:nonzero;"/>
        <path d="M335.818,37.321L339.346,37.321C339.206,35.416 338.73,34.717 337.666,34.717C336.574,34.717 336.014,35.416 335.818,37.321ZM335.79,40.205C335.986,42.081 336.714,42.893 338.394,42.893C339.906,42.893 340.662,42.361 341.222,41.632L344.441,41.632L344.441,45.189C343.098,45.945 341.138,46.533 337.75,46.533C331.981,46.533 329.658,43.649 329.658,38.973C329.658,34.241 332.71,31.217 337.666,31.217C342.678,31.217 345.03,33.569 345.03,38.749C345.03,39.449 344.974,40.009 344.974,40.205L335.79,40.205Z" style="fill:white;fill-rule:nonzero;"/>
        <path d="M105.628,81.231L256.241,81.231" style="fill:none;stroke:rgb(147,149,152);stroke-width:1.56px;"/>
        <path d="M18.343,52.253L22.26,52.253L20.424,46.519L20.383,46.519L18.343,52.253ZM13.466,56.741L13.936,56.741C14.324,56.741 14.569,56.496 14.711,56.108L18.179,46.54C18.302,46.172 18.139,45.907 17.812,45.907L16.731,45.907L16.731,44.152L22.811,44.152L26.81,56.17C26.912,56.496 27.218,56.741 27.504,56.741L28.014,56.741L28.014,58.434L21.853,58.434L21.853,56.741L23.709,56.741L22.832,54.027L17.711,54.027L17.404,54.904C16.997,56.046 17.099,56.741 18.057,56.741L18.894,56.741L18.894,58.434L13.466,58.434L13.466,56.741Z" style="fill:rgb(35,31,32);fill-rule:nonzero;"/>
        <path d="M35.08,51.477L32.958,58.434L30.408,58.434L28.001,50.089C27.878,49.762 27.633,49.518 27.348,49.518L26.96,49.518L26.96,47.722L31.693,47.722L31.693,49.518L30.754,49.518L32.162,54.864L32.203,54.864L34.284,47.722L36.569,47.722L38.65,54.864L38.691,54.864L39.772,50.866C40.037,49.926 39.936,49.518 39.1,49.518L38.793,49.518L38.793,47.722L43.261,47.722L43.261,49.518L42.915,49.518C42.588,49.518 42.262,49.703 42.139,50.151L39.711,58.434L37.161,58.434L35.121,51.477L35.08,51.477Z" style="fill:rgb(35,31,32);fill-rule:nonzero;"/>
        <path d="M49.656,56.046L49.656,53.762C49.187,53.679 48.656,53.639 48.085,53.639C46.881,53.639 46.147,54.129 46.147,55.212C46.147,56.291 46.779,56.801 47.779,56.801C48.534,56.801 49.146,56.517 49.656,56.046ZM43.25,55.333C43.25,53.088 45.004,52.068 47.473,52.068C48.371,52.068 48.983,52.149 49.656,52.314L49.656,51.191C49.656,50.11 49.065,49.599 47.799,49.599C46.514,49.599 45.861,50.089 45.331,50.558L43.963,50.558L43.963,48.375C44.963,47.926 46.31,47.559 48.391,47.559C51.166,47.559 52.635,48.457 52.635,50.905L52.635,56.231C52.635,56.475 52.9,56.741 53.145,56.741L53.716,56.741L53.716,58.168C53.308,58.414 52.696,58.577 51.921,58.577C50.677,58.577 50.044,58.087 49.779,57.229C48.983,58.209 47.983,58.557 46.677,58.557C44.678,58.557 43.25,57.456 43.25,55.333Z" style="fill:rgb(35,31,32);fill-rule:nonzero;"/>
        <path d="M54.089,56.741L54.804,56.741C55.049,56.741 55.314,56.456 55.314,56.231L55.314,50.07C55.314,49.845 55.049,49.518 54.804,49.518L54.008,49.518L54.008,47.722L57.66,47.722C58.007,47.722 58.231,48.03 58.272,49.274C58.986,48.397 59.822,47.621 61.231,47.621C61.455,47.621 61.679,47.661 61.883,47.722L61.883,49.926L61.373,49.926C59.822,49.926 58.884,50.253 58.293,50.58L58.293,56.741L59.782,56.741L59.782,58.434L54.089,58.434L54.089,56.741Z" style="fill:rgb(35,31,32);fill-rule:nonzero;"/>
        <path d="M69.579,55.945L69.579,50.07C69.049,49.824 68.314,49.599 67.601,49.599C66.192,49.599 64.927,50.415 64.927,53.129C64.927,56.067 66.131,56.801 67.356,56.801C68.294,56.801 68.987,56.456 69.579,55.945ZM61.908,53.211C61.908,49.17 64.439,47.559 66.519,47.559C68.008,47.559 68.885,48.111 69.579,48.947L69.579,45.907L68.192,45.907L68.192,44.152L72.047,44.152C72.395,44.152 72.559,44.419 72.559,44.846L72.559,56.19C72.559,56.414 72.823,56.741 73.068,56.741L73.803,56.741L73.803,58.434L70.171,58.434C69.865,58.434 69.681,57.985 69.62,57.229C68.926,58.025 67.845,58.596 66.356,58.596C64.213,58.596 61.908,57.313 61.908,53.211Z" style="fill:rgb(35,31,32);fill-rule:nonzero;"/>
        <path d="M74.237,57.985L74.237,55.579L75.952,55.579C76.196,56.333 77.155,56.801 78.094,56.801C79.236,56.801 79.929,56.312 79.929,55.537C79.929,54.741 79.46,54.416 77.747,54.17C75.441,53.844 74.36,53.048 74.36,50.947C74.36,48.825 75.992,47.601 78.726,47.601C80.399,47.601 81.542,47.784 82.398,48.069L82.398,50.437L80.746,50.437C80.399,49.803 79.746,49.395 78.624,49.395C77.522,49.395 76.91,49.845 76.91,50.518C76.91,51.17 77.298,51.558 79.114,51.824C81.704,52.211 82.765,52.925 82.765,55.088C82.765,57.19 81.358,58.557 78.114,58.557C76.176,58.557 75.115,58.271 74.237,57.985Z" style="fill:rgb(35,31,32);fill-rule:nonzero;"/>
        <path d="M120.418,71.414L117.422,71.414L117.422,72.422L123.946,72.422L123.946,71.414L123.134,71.414C122.574,71.414 121.986,70.882 121.762,70.266L115.714,52.822L110.45,52.822L110.45,53.858L111.99,53.858C112.606,53.858 112.914,54.278 112.69,54.894L107.146,70.35C106.922,70.966 106.39,71.414 105.746,71.414L104.99,71.414L104.99,72.422L111.206,72.422L111.206,71.414L109.638,71.414C108.546,71.414 108.35,70.714 108.77,69.566L110.03,66.01L118.542,66.01L120.418,71.414ZM114.286,54.11L114.426,54.11L118.15,64.89L110.45,64.89L114.286,54.11Z" style="fill:rgb(255,194,13);fill-rule:nonzero;"/>
        <path d="M128.118,72.422L129.658,72.422L133.466,60.13L133.494,60.13L137.246,72.422L138.786,72.422L142.51,59.85C142.706,59.178 143.21,58.87 143.742,58.87L144.33,58.87L144.33,57.806L139.178,57.806L139.178,58.87L140.298,58.87C141.054,58.87 141.362,59.402 141.138,60.186L138.198,70.294L138.142,70.294L134.334,57.806L132.934,57.806L129.126,70.294L129.07,70.294L125.71,58.87L127.95,58.87L127.95,57.806L122.546,57.806L122.546,58.87L123.218,58.87C123.75,58.87 124.198,59.262 124.394,59.906L128.118,72.422Z" style="fill:rgb(255,194,13);fill-rule:nonzero;"/>
        <path d="M149.65,72.562C151.806,72.562 153.318,71.666 154.438,70.266L154.438,70.574C154.438,71.946 155.278,72.534 156.678,72.534C157.266,72.534 157.77,72.366 157.938,72.282L157.938,71.358C157.938,71.358 157.546,71.442 157.21,71.442C156.426,71.442 156.062,71.078 156.062,70.21L156.062,61.726C156.062,58.59 154.046,57.666 151.078,57.666C148.642,57.666 146.906,58.254 145.758,58.898L145.758,60.27L146.57,60.27C147.41,59.514 148.782,58.814 150.938,58.814C153.01,58.814 154.438,59.514 154.438,61.866L154.438,64.498C153.29,64.19 152.058,64.05 150.63,64.05C147.242,64.05 144.806,65.366 144.806,68.306C144.806,71.218 146.766,72.562 149.65,72.562ZM149.874,71.442C147.69,71.442 146.374,70.518 146.374,68.306C146.374,66.038 148.138,65.114 150.91,65.114C152.17,65.114 153.346,65.282 154.438,65.534L154.438,69.062C153.318,70.434 152.058,71.442 149.874,71.442Z" style="fill:rgb(255,194,13);fill-rule:nonzero;"/>
        <path d="M159.113,72.422L165.469,72.422L165.469,71.414L162.781,71.414L162.781,61.726C164.237,60.102 165.525,59.122 167.681,59.122C167.933,59.122 168.325,59.15 168.325,59.15L168.325,57.806C168.241,57.778 167.989,57.722 167.625,57.722C165.413,57.722 163.901,59.206 162.781,60.662L162.781,58.814C162.781,58.002 162.613,57.806 162.277,57.806L158.973,57.806L158.973,58.87L160.345,58.87C160.765,58.87 161.157,59.318 161.157,59.71L161.157,70.602C161.157,71.022 160.765,71.414 160.345,71.414L159.113,71.414L159.113,72.422Z" style="fill:rgb(255,194,13);fill-rule:nonzero;"/>
        <path d="M175.157,72.534C177.649,72.534 179.441,71.218 180.533,69.706L180.533,71.498C180.561,72.114 180.673,72.422 180.953,72.422L184.229,72.422L184.229,71.414L182.969,71.414C182.577,71.414 182.157,70.994 182.157,70.574L182.157,53.326C182.157,53.018 182.045,52.822 181.765,52.822L178.069,52.822L178.069,53.858L180.533,53.858L180.533,59.766C179.581,58.646 177.985,57.666 175.605,57.666C172.497,57.666 169.025,59.57 169.025,65.282C169.025,70.91 172.133,72.534 175.157,72.534ZM175.353,71.442C173.197,71.442 170.677,70.266 170.677,65.226C170.677,60.186 173.449,58.898 175.857,58.898C178.125,58.898 179.329,59.626 180.533,60.886L180.533,68.558C179.329,70.126 177.733,71.442 175.353,71.442Z" style="fill:rgb(255,194,13);fill-rule:nonzero;"/>
        <path d="M190.529,72.534C194.281,72.534 196.045,70.938 196.045,68.138C196.045,65.534 194.309,64.694 191.229,64.19C188.597,63.742 187.449,63.266 187.449,61.446C187.449,59.794 188.625,58.786 191.033,58.786C192.405,58.786 193.021,58.87 193.637,59.122C194.225,59.374 194.365,59.794 194.505,60.942L195.569,60.942L195.569,58.366C194.673,58.002 193.413,57.666 191.061,57.666C187.813,57.666 185.993,59.122 185.993,61.642C185.993,64.33 187.701,65.058 190.529,65.534C193.189,65.982 194.533,66.542 194.533,68.334C194.533,70.406 193.105,71.47 190.501,71.47C189.045,71.47 188.345,71.302 187.645,71.05C187.085,70.826 186.889,70.322 186.777,68.978L185.685,68.978L185.685,71.722C186.609,72.086 187.925,72.534 190.529,72.534Z" style="fill:rgb(255,194,13);fill-rule:nonzero;"/>
        <path d="M202.317,72.422L214.581,72.422L214.581,67.858L213.349,67.858L213.125,71.078L203.829,71.078C203.885,68.222 206.321,66.402 209.009,64.722C212.145,62.762 214.861,61.222 214.861,57.806C214.861,54.558 212.845,52.682 208.785,52.682C206.657,52.682 204.837,53.074 203.213,53.746L203.213,57.106L204.333,57.106C204.473,55.594 204.697,54.95 205.201,54.614C205.957,54.082 207.133,53.83 208.757,53.83C211.781,53.83 213.097,55.314 213.097,57.834C213.097,60.578 210.745,61.95 208.085,63.714C205.285,65.562 202.317,67.606 202.317,71.33L202.317,72.422Z" style="fill:rgb(255,194,13);fill-rule:nonzero;"/>
        <path d="M224.884,72.562C229.196,72.562 232.864,69.258 232.864,62.622C232.864,55.986 229.196,52.682 224.884,52.682C220.572,52.682 216.876,55.986 216.876,62.622C216.876,69.258 220.572,72.562 224.884,72.562ZM224.884,71.386C221.244,71.386 218.668,68.642 218.668,62.65C218.668,56.658 221.244,53.858 224.884,53.858C228.496,53.858 231.072,56.658 231.072,62.65C231.072,68.642 228.496,71.386 224.884,71.386Z" style="fill:rgb(255,194,13);fill-rule:nonzero;"/>
        <path d="M233.873,72.422L246.137,72.422L246.137,67.858L244.905,67.858L244.681,71.078L235.385,71.078C235.441,68.222 237.877,66.402 240.565,64.722C243.701,62.762 246.417,61.222 246.417,57.806C246.417,54.558 244.401,52.682 240.341,52.682C238.213,52.682 236.393,53.074 234.769,53.746L234.769,57.106L235.889,57.106C236.029,55.594 236.253,54.95 236.757,54.614C237.513,54.082 238.689,53.83 240.313,53.83C243.337,53.83 244.653,55.314 244.653,57.834C244.653,60.578 242.301,61.95 239.641,63.714C236.841,65.562 233.873,67.606 233.873,71.33L233.873,72.422Z" style="fill:rgb(255,194,13);fill-rule:nonzero;"/>
        <path d="M248.012,72.422L255.992,72.422L255.992,71.414L253.892,71.414C253.416,71.414 252.94,70.91 252.94,70.462L252.94,52.822L251.764,52.822L247.9,54.838L247.9,55.846L248.488,55.846L251.204,54.362L251.204,70.462C251.204,70.91 250.756,71.414 250.28,71.414L248.012,71.414L248.012,72.422Z" style="fill:rgb(255,194,13);fill-rule:nonzero;"/>
        <path d="M28.585,78.854L37.516,78.854L37.516,75.53L36.619,75.53L36.455,77.875L29.686,77.875C29.727,75.795 31.501,74.47 33.458,73.247C35.742,71.819 37.72,70.698 37.72,68.21C37.72,65.845 36.252,64.478 33.295,64.478C31.745,64.478 30.42,64.764 29.237,65.253L29.237,67.7L30.053,67.7C30.155,66.599 30.318,66.13 30.685,65.885C31.235,65.498 32.092,65.315 33.275,65.315C35.477,65.315 36.435,66.395 36.435,68.23C36.435,70.229 34.722,71.228 32.785,72.512C30.746,73.858 28.585,75.347 28.585,78.059L28.585,78.854Z" style="fill:rgb(35,31,32);fill-rule:nonzero;"/>
        <path d="M45.02,78.956C48.16,78.956 50.831,76.55 50.831,71.717C50.831,66.885 48.16,64.478 45.02,64.478C41.88,64.478 39.188,66.885 39.188,71.717C39.188,76.55 41.88,78.956 45.02,78.956ZM45.02,78.1C42.369,78.1 40.493,76.101 40.493,71.738C40.493,67.374 42.369,65.335 45.02,65.335C47.65,65.335 49.526,67.374 49.526,71.738C49.526,76.101 47.65,78.1 45.02,78.1Z" style="fill:rgb(35,31,32);fill-rule:nonzero;"/>
        <path d="M51.565,78.854L60.496,78.854L60.496,75.53L59.599,75.53L59.436,77.875L52.666,77.875C52.707,75.795 54.481,74.47 56.438,73.247C58.722,71.819 60.7,70.698 60.7,68.21C60.7,65.845 59.232,64.478 56.275,64.478C54.725,64.478 53.4,64.764 52.217,65.253L52.217,67.7L53.033,67.7C53.135,66.599 53.298,66.13 53.665,65.885C54.215,65.498 55.072,65.315 56.255,65.315C58.457,65.315 59.415,66.395 59.415,68.23C59.415,70.229 57.702,71.228 55.765,72.512C53.726,73.858 51.565,75.347 51.565,78.059L51.565,78.854Z" style="fill:rgb(35,31,32);fill-rule:nonzero;"/>
        <path d="M61.862,78.854L67.673,78.854L67.673,78.12L66.144,78.12C65.798,78.12 65.451,77.753 65.451,77.427L65.451,64.58L64.594,64.58L61.781,66.049L61.781,66.783L62.209,66.783L64.187,65.702L64.187,77.427C64.187,77.753 63.86,78.12 63.514,78.12L61.862,78.12L61.862,78.854Z" style="fill:rgb(35,31,32);fill-rule:nonzero;"/>
        <path d="M105.002,97.013L107.892,97.013L107.974,96.648L107.172,96.648C107,96.648 106.919,96.476 106.949,96.313L108.42,89.914L107.984,89.914L106.422,90.614L106.341,91L106.554,91L107.669,90.482L106.331,96.313C106.29,96.476 106.087,96.648 105.915,96.648L105.083,96.648L105.002,97.013Z" style="fill:white;fill-rule:nonzero;"/>
        <path d="M110.61,97.064C112.425,97.064 113.318,96.07 113.318,94.813C113.318,94.093 112.882,93.525 112.141,93.383L112.141,93.362C113.186,93.17 113.835,92.419 113.835,91.405C113.835,90.462 113.156,89.864 111.908,89.864C111.188,89.864 110.712,90.006 110.184,90.219L109.941,91.294L110.357,91.294C110.509,90.868 110.641,90.614 110.823,90.503C111.097,90.34 111.33,90.28 111.868,90.28C112.78,90.28 113.227,90.716 113.227,91.476C113.227,92.541 112.476,93.129 111.35,93.129L110.793,93.129L110.701,93.545L111.259,93.545C112.131,93.545 112.699,94.011 112.699,94.792C112.699,95.806 112.06,96.648 110.63,96.648C109.981,96.648 109.606,96.526 109.413,96.354C109.272,96.232 109.231,95.989 109.272,95.543L108.876,95.543L108.622,96.628C109.089,96.851 109.738,97.064 110.61,97.064Z" style="fill:white;fill-rule:nonzero;"/>
        <path d="M118.916,97.064C120.873,97.064 122.698,95.259 122.698,92.632C122.698,90.878 121.633,89.864 119.97,89.864C118.003,89.864 116.198,91.709 116.198,94.306C116.198,96.06 117.242,97.064 118.916,97.064ZM118.946,96.638C117.597,96.638 116.837,95.827 116.837,94.336C116.837,91.943 118.266,90.29 119.94,90.29C121.289,90.29 122.059,91.121 122.059,92.602C122.059,94.975 120.619,96.638 118.946,96.638Z" style="fill:white;fill-rule:nonzero;"/>
        <path d="M125.224,97.054C126.167,97.054 126.694,96.709 127.019,96.476L127.13,96.03L126.785,96.03C126.511,96.313 126.116,96.668 125.244,96.668C124.28,96.668 123.865,96.03 123.865,95.066C123.865,93.494 124.798,92.064 126.39,92.064C126.643,92.064 126.856,92.095 127.008,92.166C127.292,92.298 127.333,92.521 127.313,92.947L127.688,92.947L127.911,91.993C127.586,91.821 127.161,91.669 126.43,91.669C124.544,91.669 123.266,93.2 123.266,95.066C123.266,96.243 123.925,97.054 125.224,97.054Z" style="fill:white;fill-rule:nonzero;"/>
        <path d="M129.533,97.064C129.837,97.064 130.091,97.003 130.304,96.922L130.385,96.557L130.091,96.557C129.969,96.628 129.776,96.658 129.584,96.658C129.067,96.658 128.955,96.303 129.097,95.685L129.918,92.105L131.206,92.105L131.298,91.72L130.01,91.72L130.344,90.259L129.766,90.259L129.421,91.72L128.701,91.72L128.61,92.105L129.34,92.105L128.509,95.685C128.316,96.537 128.651,97.064 129.533,97.064Z" style="fill:white;fill-rule:nonzero;"/>
        <path d="M133.316,97.054C134.999,97.054 136.216,95.543 136.216,93.738C136.216,92.49 135.435,91.669 134.158,91.669C132.484,91.669 131.237,93.139 131.237,94.944C131.237,96.243 132.018,97.054 133.316,97.054ZM133.336,96.668C132.373,96.668 131.825,96.07 131.825,95.005C131.825,93.413 132.758,92.075 134.127,92.075C135.091,92.075 135.628,92.673 135.628,93.707C135.628,95.249 134.725,96.668 133.336,96.668Z" style="fill:white;fill-rule:nonzero;"/>
        <path d="M138.843,97.054C139.583,97.054 140.242,96.8 140.759,96.273C141.358,95.654 141.804,94.569 141.804,93.383C141.804,92.196 141.185,91.669 140.333,91.669C139.37,91.669 138.63,92.308 138.133,92.855L138.772,90.097C138.802,89.975 138.762,89.914 138.66,89.914L137.474,89.914L137.382,90.29L137.869,90.29C138.021,90.29 138.113,90.422 138.072,90.584L136.591,97.013L136.835,97.013C136.946,97.013 137.119,96.739 137.24,96.476C137.514,96.739 137.92,97.054 138.843,97.054ZM138.802,96.658C138.001,96.658 137.666,96.435 137.372,96.161L138.031,93.312C138.599,92.734 139.34,92.105 140.181,92.105C140.739,92.105 141.206,92.419 141.206,93.444C141.206,94.508 140.871,95.411 140.384,95.959C139.958,96.435 139.38,96.658 138.802,96.658Z" style="fill:white;fill-rule:nonzero;"/>
        <path d="M144.349,97.054C145.303,97.054 145.83,96.719 146.154,96.476L146.266,96.03L145.921,96.03C145.637,96.334 145.232,96.668 144.38,96.668C143.437,96.668 143.011,95.989 143.011,95.026C143.011,94.904 143.021,94.742 143.031,94.64C145.627,94.6 146.945,94.062 146.945,92.855C146.945,92.014 146.296,91.669 145.475,91.669C143.781,91.669 142.422,93.139 142.422,95.015C142.422,96.212 143.051,97.054 144.349,97.054ZM143.082,94.255C143.335,93.129 144.136,92.054 145.455,92.054C145.952,92.054 146.367,92.257 146.367,92.876C146.367,93.839 145.292,94.214 143.082,94.255Z" style="fill:white;fill-rule:nonzero;"/>
        <path d="M147.655,97.013L148.03,97.013L148.872,93.362C149.43,92.734 150.018,92.196 150.799,92.196C150.89,92.196 151.002,92.206 151.002,92.206L151.113,91.72C151.083,91.709 150.992,91.689 150.86,91.689C150.079,91.689 149.46,92.277 148.974,92.876L149.034,92.632C149.197,91.973 148.892,91.679 148.426,91.679C148.183,91.679 147.888,91.76 147.817,91.791L147.747,92.105L148.132,92.105C148.385,92.105 148.527,92.308 148.467,92.561L147.513,96.719C147.463,96.912 147.534,97.013 147.655,97.013Z" style="fill:white;fill-rule:nonzero;"/>
        <path d="M152.27,97.013L156.711,97.013L157.087,95.36L156.64,95.36L156.275,96.527L152.908,96.527C153.182,95.482 154.186,94.772 155.261,94.204C156.64,93.474 157.938,92.937 157.938,91.466C157.938,90.493 157.239,89.864 155.931,89.864C155.2,89.864 154.612,90.006 154.105,90.249L153.811,91.466L154.237,91.466C154.419,90.918 154.521,90.675 154.785,90.523C155.048,90.371 155.342,90.28 155.9,90.28C156.853,90.28 157.3,90.777 157.3,91.486C157.3,92.744 156.214,93.129 154.937,93.859C153.669,94.59 152.655,95.37 152.351,96.638L152.27,97.013Z" style="fill:white;fill-rule:nonzero;"/>
        <path d="M160.565,97.064C161.488,97.064 162.38,96.658 163.04,95.867C163.678,95.086 164.094,93.92 164.094,92.501C164.094,90.878 163.242,89.864 161.741,89.864C160.778,89.864 159.875,90.351 159.216,91.202C158.598,91.993 158.202,93.109 158.202,94.417C158.202,96.07 159.084,97.064 160.565,97.064ZM160.575,96.638C159.419,96.638 158.831,95.827 158.831,94.488C158.831,93.352 159.135,92.247 159.693,91.476C160.23,90.736 160.91,90.29 161.731,90.29C162.887,90.29 163.465,91.121 163.465,92.44C163.465,93.697 163.161,94.813 162.614,95.563C162.096,96.263 161.407,96.638 160.575,96.638Z" style="fill:white;fill-rule:nonzero;"/>
        <path d="M163.668,97.013L168.11,97.013L168.485,95.36L168.039,95.36L167.674,96.527L164.307,96.527C164.581,95.482 165.585,94.772 166.66,94.204C168.039,93.474 169.337,92.937 169.337,91.466C169.337,90.493 168.637,89.864 167.329,89.864C166.599,89.864 166.011,90.006 165.504,90.249L165.209,91.466L165.635,91.466C165.818,90.919 165.919,90.675 166.183,90.523C166.447,90.371 166.741,90.28 167.299,90.28C168.252,90.28 168.698,90.777 168.698,91.486C168.698,92.744 167.613,93.129 166.335,93.859C165.067,94.59 164.053,95.37 163.749,96.638L163.668,97.013Z" style="fill:white;fill-rule:nonzero;"/>
        <path d="M168.84,97.013L171.73,97.013L171.812,96.648L171.01,96.648C170.838,96.648 170.757,96.476 170.787,96.314L172.258,89.915L171.822,89.915L170.26,90.614L170.179,91L170.392,91L171.507,90.482L170.169,96.314C170.128,96.476 169.925,96.648 169.753,96.648L168.921,96.648L168.84,97.013Z" style="fill:white;fill-rule:nonzero;"/>
        <path d="M175.908,95.137C176.648,95.137 177.247,94.62 177.247,93.778C177.247,93.16 176.801,92.784 176.192,92.784C175.472,92.784 174.833,93.312 174.833,94.123C174.833,94.752 175.3,95.137 175.908,95.137Z" style="fill:white;fill-rule:nonzero;"/>
        <path d="M182.581,97.064C184.538,97.064 186.364,95.259 186.364,92.632C186.364,90.878 185.299,89.864 183.636,89.864C181.668,89.864 179.863,91.71 179.863,94.306C179.863,96.06 180.908,97.064 182.581,97.064ZM182.612,96.638C181.263,96.638 180.502,95.827 180.502,94.336C180.502,91.943 181.932,90.29 183.605,90.29C184.954,90.29 185.725,91.121 185.725,92.602C185.725,94.975 184.285,96.638 182.612,96.638Z" style="fill:white;fill-rule:nonzero;"/>
        <path d="M191.14,97.054C191.444,97.054 191.616,96.983 191.687,96.953L191.758,96.648L191.454,96.648C191.221,96.648 191.059,96.435 191.12,96.172L191.84,93.038C192.042,92.156 191.637,91.669 190.876,91.669C189.943,91.669 189.031,92.267 188.402,92.845L188.463,92.592C188.615,91.963 188.31,91.679 187.854,91.679C187.601,91.679 187.307,91.77 187.236,91.791L187.165,92.105L187.55,92.105C187.803,92.105 187.945,92.308 187.885,92.561L186.931,96.719C186.881,96.912 186.952,97.013 187.073,97.013L187.449,97.013L188.31,93.261C188.96,92.703 189.842,92.146 190.673,92.146C191.15,92.146 191.393,92.45 191.241,93.099L190.531,96.182C190.41,96.719 190.673,97.054 191.14,97.054Z" style="fill:white;fill-rule:nonzero;"/>
        <path d="M193.503,97.054C193.777,97.054 193.98,96.983 194.061,96.953L194.132,96.648L193.767,96.648C193.544,96.648 193.371,96.435 193.432,96.192L194.842,90.097C194.862,89.975 194.832,89.915 194.73,89.915L193.483,89.915L193.392,90.29L193.909,90.29C194.061,90.29 194.172,90.442 194.142,90.584L192.854,96.162C192.722,96.719 192.976,97.054 193.503,97.054Z" style="fill:white;fill-rule:nonzero;"/>
        <path d="M195.947,97.054C196.251,97.054 196.413,96.993 196.494,96.953L196.565,96.648L196.251,96.648C196.018,96.648 195.835,96.435 195.896,96.192L196.728,92.572C196.87,91.973 196.647,91.679 196.129,91.679C195.805,91.679 195.561,91.77 195.49,91.791L195.419,92.105L195.825,92.105C196.068,92.105 196.21,92.308 196.15,92.561L195.318,96.162C195.186,96.719 195.44,97.054 195.947,97.054ZM196.839,90.969C197.042,90.969 197.255,90.787 197.255,90.553C197.255,90.351 197.103,90.178 196.87,90.178C196.657,90.178 196.464,90.361 196.464,90.594C196.464,90.797 196.616,90.969 196.839,90.969Z" style="fill:white;fill-rule:nonzero;"/>
        <path d="M201.89,97.054C202.194,97.054 202.367,96.983 202.437,96.953L202.508,96.648L202.204,96.648C201.971,96.648 201.809,96.435 201.87,96.172L202.59,93.038C202.792,92.156 202.387,91.669 201.626,91.669C200.693,91.669 199.781,92.267 199.152,92.845L199.213,92.592C199.365,91.963 199.061,91.679 198.604,91.679C198.351,91.679 198.057,91.77 197.986,91.791L197.915,92.105L198.3,92.105C198.553,92.105 198.695,92.308 198.635,92.561L197.681,96.719C197.631,96.912 197.702,97.013 197.823,97.013L198.199,97.013L199.061,93.261C199.71,92.703 200.592,92.146 201.423,92.146C201.9,92.146 202.143,92.45 201.991,93.099L201.281,96.182C201.16,96.719 201.423,97.054 201.89,97.054Z" style="fill:white;fill-rule:nonzero;"/>
        <path d="M205.459,97.054C206.413,97.054 206.94,96.719 207.264,96.476L207.376,96.03L207.031,96.03C206.747,96.334 206.342,96.669 205.49,96.669C204.547,96.669 204.121,95.989 204.121,95.026C204.121,94.904 204.131,94.742 204.141,94.64C206.737,94.6 208.055,94.062 208.055,92.856C208.055,92.014 207.406,91.669 206.585,91.669C204.891,91.669 203.532,93.139 203.532,95.016C203.532,96.212 204.161,97.054 205.459,97.054ZM204.192,94.255C204.445,93.129 205.246,92.054 206.565,92.054C207.062,92.054 207.477,92.257 207.477,92.876C207.477,93.839 206.402,94.214 204.192,94.255Z" style="fill:white;fill-rule:nonzero;"/>
    </g>
    <defs>
        <linearGradient id="_Linear1" x1="0" y1="0" x2="1" y2="0" gradientUnits="userSpaceOnUse" gradientTransform="matrix(73.2602,-73.2602,73.2602,73.2602,11.5113,75.7744)"><stop offset="0" style="stop-color:rgb(251,202,37);stop-opacity:1"/><stop offset="0.2" style="stop-color:rgb(255,239,171);stop-opacity:1"/><stop offset="0.3" style="stop-color:rgb(250,239,186);stop-opacity:1"/><stop offset="0.6" style="stop-color:rgb(195,148,47);stop-opacity:1"/><stop offset="0.9" style="stop-color:rgb(243,223,151);stop-opacity:1"/><stop offset="1" style="stop-color:rgb(255,251,204);stop-opacity:1"/></linearGradient>
    </defs>
</svg>
