<?xml version="1.0" encoding="UTF-8" standalone="no"?>
<!DOCTYPE svg PUBLIC "-//W3C//DTD SVG 1.1//EN" "http://www.w3.org/Graphics/SVG/1.1/DTD/svg11.dtd">
<svg width="100%" height="100%" viewBox="0 0 512 512" version="1.1" xmlns="http://www.w3.org/2000/svg" xmlns:xlink="http://www.w3.org/1999/xlink" xml:space="preserve" xmlns:serif="http://www.serif.com/" style="fill-rule:evenodd;clip-rule:evenodd;stroke-linejoin:round;stroke-miterlimit:2;">
    <g id="g5891">
        <path id="background" d="M512,64C512,28.677 483.323,0 448,0L64,0C28.677,0 0,28.677 0,64L0,448C0,483.323 28.677,512 64,512L448,512C483.323,512 512,483.323 512,448L512,64Z" style="fill:rgb(40,103,178);"/>
        <g id="shapes">
            <rect id="rect11" x="61.053" y="178.667" width="85.76" height="257.962" style="fill:white;"/>
            <path id="path13-0" d="M104.512,54.28C75.171,54.28 56,73.57 56,98.853C56,123.605 74.588,143.427 103.377,143.427L103.931,143.427C133.834,143.427 152.447,123.605 152.447,98.853C151.892,73.57 133.836,54.28 104.512,54.28Z" style="fill:white;fill-rule:nonzero;"/>
            <path id="path15" d="M357.278,172.601C311.788,172.601 291.412,197.618 280.002,215.19L280.002,178.667L194.264,178.667C195.401,202.864 194.264,436.628 194.264,436.628L280.001,436.628L280.001,292.564C280.001,284.853 280.555,277.144 282.828,271.633C289.016,256.233 303.133,240.281 326.821,240.281C357.833,240.281 370.257,263.945 370.257,298.608L370.257,436.628L455.998,436.628L455.998,288.698C455.998,209.461 413.693,172.601 357.278,172.601Z" style="fill:white;fill-rule:nonzero;"/>
        </g>
    </g>
</svg>
