<?xml version="1.0" encoding="UTF-8" standalone="no"?>
<!DOCTYPE svg PUBLIC "-//W3C//DTD SVG 1.1//EN" "http://www.w3.org/Graphics/SVG/1.1/DTD/svg11.dtd">
<svg width="100%" height="100%" viewBox="0 0 20 20" version="1.1" xmlns="http://www.w3.org/2000/svg" xmlns:xlink="http://www.w3.org/1999/xlink" xml:space="preserve" xmlns:serif="http://www.serif.com/" style="fill-rule:evenodd;clip-rule:evenodd;stroke-linejoin:round;stroke-miterlimit:2;">
    <path d="M10,0C10,0 18,7.58 18,12C18,16.389 14.389,20 10,20C5.611,20 2,16.389 2,12C2,10.5 2.91,8.65 4.12,6.85C4.492,8.126 5.671,9.01 7,9.01C8.646,9.01 10,7.656 10,6.01C10,6.007 10,6.003 10,6L10,0ZM8,0C6.354,0 5,1.354 5,3C5,4.646 6.354,6 8,6L8,0Z" style="fill-rule:nonzero;"/>
</svg>
