<?xml version="1.0" encoding="UTF-8" standalone="no"?>
<!DOCTYPE svg PUBLIC "-//W3C//DTD SVG 1.1//EN" "http://www.w3.org/Graphics/SVG/1.1/DTD/svg11.dtd">
<svg width="100%" height="100%" viewBox="0 0 20 20" version="1.1" xmlns="http://www.w3.org/2000/svg" xmlns:xlink="http://www.w3.org/1999/xlink" xml:space="preserve" xmlns:serif="http://www.serif.com/" style="fill-rule:evenodd;clip-rule:evenodd;stroke-linejoin:round;stroke-miterlimit:2;">
    <path d="M19,11C18.867,13.429 17.56,15.646 15.5,16.94L10,20L4.5,16.94C2.44,15.646 1.133,13.429 1,11L1,3C4.38,3 7.5,1.88 10,0C12.5,1.89 15.62,3 19,3L19,11ZM10,12.08L12.92,14.12L11.89,10.71L14.73,8.56L11.17,8.48L10,5.12L8.83,8.48L5.27,8.56L8.1,10.7L7.07,14.1L10,12.09L10,12.08Z" style="fill-rule:nonzero;"/>
</svg>
